<?xml version="1.0" encoding="iso-8859-1"?>
<!-- Generator: Adobe Illustrator 21.0.0, SVG Export Plug-In . SVG Version: 6.00 Build 0)  -->
<svg version="1.1" id="Layer_1" xmlns="http://www.w3.org/2000/svg" xmlns:xlink="http://www.w3.org/1999/xlink" x="0px" y="0px"
	 viewBox="0 0 30.669 65.701" style="enable-background:new 0 0 30.669 65.701;" xml:space="preserve">
<path d="M10.108,3.384c2.567-2.439,6.201-3.268,9.645-3.364c3.635-0.032,7.27-0.016,10.904-0.016c0.016,3.842,0.016,7.668,0,11.51
	c-2.343,0-4.703,0-7.046,0c-1.483-0.096-3.013,1.036-3.284,2.519c-0.032,2.567-0.016,5.133-0.016,7.7
	c3.443,0.016,6.887,0,10.33,0.016c-0.255,3.714-0.717,7.413-1.259,11.08c-3.045,0.032-6.09,0-9.135,0.016
	c-0.032,10.952,0.016,21.888-0.016,32.841c-4.528,0.016-9.039-0.016-13.567,0.016c-0.08-10.952,0-21.904-0.048-32.857
	C4.416,32.829,2.2,32.861,0,32.829c0.016-3.683,0-7.365,0-11.032c2.2-0.032,4.416,0,6.616-0.016
	C6.68,18.21,6.552,14.623,6.68,11.052C6.92,8.199,7.988,5.345,10.108,3.384z"/>
</svg>
