<?xml version="1.0" encoding="iso-8859-1"?>
<!-- Generator: Adobe Illustrator 21.0.0, SVG Export Plug-In . SVG Version: 6.00 Build 0)  -->
<svg version="1.1" id="Layer_1" xmlns="http://www.w3.org/2000/svg" xmlns:xlink="http://www.w3.org/1999/xlink" x="0px" y="0px"
	 viewBox="0 0 62.769 50.501" style="enable-background:new 0 0 62.769 50.501;" xml:space="preserve">
<g>
	<path d="M62.77,5.992c-2.283,1.141-4.85,1.712-7.418,1.997c2.568-1.712,4.565-3.994,5.706-7.133
		c-2.568,1.427-5.136,2.568-8.274,3.138C50.501,1.426,47.078,0,43.369,0C36.236,0,30.53,5.706,30.53,12.839
		c0,1.141,0,1.997,0.285,2.853C20.258,15.121,10.843,9.986,4.281,2.282C3.14,4.279,2.569,6.276,2.569,8.844
		c0,4.565,2.283,8.274,5.706,10.557c-1.997,0-3.994-0.571-5.706-1.712v0.285c0,6.277,4.28,11.413,10.271,12.554
		c-1.141,0.285-2.283,0.571-3.424,0.571c-0.856,0-1.712,0-2.283-0.285c1.712,5.136,6.277,8.845,11.983,8.845
		c-4.28,3.424-9.986,5.421-15.978,5.421c-1.141,0-1.997,0-3.138-0.285c5.706,3.709,12.269,5.706,19.687,5.706
		c23.681,0,36.52-19.401,36.52-36.52v-1.712C59.061,10.842,61.058,8.56,62.77,5.992z"/>
</g>
</svg>
